<svg class="background" xmlns="http://www.w3.org/2000/svg" xmlns:xlink="http://www.w3.org/1999/xlink" version="1.1" preserveAspectRatio="xMidYMid slice" viewBox="0 0 150 150"><polygon points="0,0 9.581947617081338,0 12.422228015371976,10.909542102885883" fill="rgb(44,62,80)"></polygon><polygon points="0,0 0,8.429070175297626 12.422228015371976,10.909542102885883" fill="rgb(93,143,168)"></polygon><polygon points="9.581947617081338,0 21.977062780125635,0 12.422228015371976,10.909542102885883" fill="rgb(123,192,222)"></polygon><polygon points="21.977062780125635,0 16.93293233951106,7.415160829041222 12.422228015371976,10.909542102885883" fill="rgb(68,102,124)"></polygon><polygon points="21.977062780125635,0 27.466952859681793,0 29.65574089491963,6.690146362753044" fill="rgb(107,165,192)"></polygon><polygon points="21.977062780125635,0 16.93293233951106,7.415160829041222 29.65574089491963,6.690146362753044" fill="rgb(88,134,158)"></polygon><polygon points="27.466952859681793,0 37.66034421385755,0 29.65574089491963,6.690146362753044" fill="rgb(118,183,212)"></polygon><polygon points="37.66034421385755,0 42.26628831185365,13.235701715998488 29.65574089491963,6.690146362753044" fill="rgb(90,138,163)"></polygon><polygon points="37.66034421385755,0 53.38952001124491,0 42.26628831185365,13.235701715998488" fill="rgb(71,107,129)"></polygon><polygon points="53.38952001124491,0 47.19408387713611,11.814560558789012 42.26628831185365,13.235701715998488" fill="rgb(110,170,197)"></polygon><polygon points="53.38952001124491,0 57.00734117913473,0 58.45435870892787,6.809179750041392" fill="rgb(60,89,109)"></polygon><polygon points="53.38952001124491,0 47.19408387713611,11.814560558789012 58.45435870892787,6.809179750041392" fill="rgb(44,62,80)"></polygon><polygon points="57.00734117913473,0 72.17448018027784,0 58.45435870892787,6.809179750041392" fill="rgb(68,102,124)"></polygon><polygon points="72.17448018027784,0 70.41881397657077,6.511920684537361 58.45435870892787,6.809179750041392" fill="rgb(99,152,178)"></polygon><polygon points="72.17448018027784,0 78.12404806011081,0 70.41881397657077,6.511920684537361" fill="rgb(66,98,119)"></polygon><polygon points="78.12404806011081,0 79.85672569073496,9.050177839579263 70.41881397657077,6.511920684537361" fill="rgb(121,188,217)"></polygon><polygon points="78.12404806011081,0 92.77818979837944,0 79.85672569073496,9.050177839579263" fill="rgb(82,125,148)"></polygon><polygon points="92.77818979837944,0 87.4896953470906,12.16659333428988 79.85672569073496,9.050177839579263" fill="rgb(96,147,173)"></polygon><polygon points="92.77818979837944,0 97.58191768820063,0 87.4896953470906,12.16659333428988" fill="rgb(132,206,237)"></polygon><polygon points="97.58191768820063,0 97.24947616766795,7.9331871347327 87.4896953470906,12.16659333428988" fill="rgb(104,161,187)"></polygon><polygon points="97.58191768820063,0 107.50460169675824,0 97.24947616766795,7.9331871347327" fill="rgb(121,188,217)"></polygon><polygon points="107.50460169675824,0 110.40572140261278,11.488339115676528 97.24947616766795,7.9331871347327" fill="rgb(66,98,119)"></polygon><polygon points="107.50460169675824,0 122.19376272030622,0 110.40572140261278,11.488339115676528" fill="rgb(93,143,168)"></polygon><polygon points="122.19376272030622,0 118.69226032582382,11.528640526926033 110.40572140261278,11.488339115676528" fill="rgb(93,143,168)"></polygon><polygon points="122.19376272030622,0 132.14277995774864,0 130.05489275754792,6.634437132230567" fill="rgb(123,192,222)"></polygon><polygon points="122.19376272030622,0 118.69226032582382,11.528640526926033 130.05489275754792,6.634437132230567" fill="rgb(66,98,119)"></polygon><polygon points="132.14277995774864,0 141.97871089358335,0 142.96130158656192,9.870363001152512" fill="rgb(115,179,207)"></polygon><polygon points="132.14277995774864,0 130.05489275754792,6.634437132230567 142.96130158656192,9.870363001152512" fill="rgb(44,62,80)"></polygon><polygon points="141.97871089358335,0 150,0 150,7.4035140234828045" fill="rgb(68,102,124)"></polygon><polygon points="141.97871089358335,0 142.96130158656192,9.870363001152512 150,7.4035140234828045" fill="rgb(132,206,237)"></polygon><polygon points="0,8.429070175297626 12.422228015371976,10.909542102885883 10.496902332333166,20.454762203187947" fill="rgb(115,179,207)"></polygon><polygon points="0,8.429070175297626 0,20.378982373106943 10.496902332333166,20.454762203187947" fill="rgb(121,188,217)"></polygon><polygon points="12.422228015371976,10.909542102885883 16.93293233951106,7.415160829041222 10.496902332333166,20.454762203187947" fill="rgb(93,143,168)"></polygon><polygon points="16.93293233951106,7.415160829041222 20.83275822035798,19.225989401491553 10.496902332333166,20.454762203187947" fill="rgb(118,183,212)"></polygon><polygon points="16.93293233951106,7.415160829041222 29.65574089491963,6.690146362753044 20.83275822035798,19.225989401491553" fill="rgb(68,102,124)"></polygon><polygon points="29.65574089491963,6.690146362753044 27.457654901828302,21.079090398713593 20.83275822035798,19.225989401491553" fill="rgb(118,183,212)"></polygon><polygon points="29.65574089491963,6.690146362753044 42.26628831185365,13.235701715998488 38.092672718282195,17.155958379168265" fill="rgb(60,89,109)"></polygon><polygon points="29.65574089491963,6.690146362753044 27.457654901828302,21.079090398713593 38.092672718282195,17.155958379168265" fill="rgb(85,129,153)"></polygon><polygon points="42.26628831185365,13.235701715998488 47.19408387713611,11.814560558789012 51.320765225166525,17.7273101420053" fill="rgb(110,170,197)"></polygon><polygon points="42.26628831185365,13.235701715998488 38.092672718282195,17.155958379168265 51.320765225166525,17.7273101420053" fill="rgb(121,188,217)"></polygon><polygon points="47.19408387713611,11.814560558789012 58.45435870892787,6.809179750041392 62.43782666964891,21.859466868676392" fill="rgb(68,102,124)"></polygon><polygon points="47.19408387713611,11.814560558789012 51.320765225166525,17.7273101420053 62.43782666964891,21.859466868676392" fill="rgb(115,179,207)"></polygon><polygon points="58.45435870892787,6.809179750041392 70.41881397657077,6.511920684537361 62.43782666964891,21.859466868676392" fill="rgb(115,179,207)"></polygon><polygon points="70.41881397657077,6.511920684537361 69.77814060421602,18.399338726713857 62.43782666964891,21.859466868676392" fill="rgb(77,116,138)"></polygon><polygon points="70.41881397657077,6.511920684537361 79.85672569073496,9.050177839579263 81.42425955736832,22.72736142954341" fill="rgb(55,80,99)"></polygon><polygon points="70.41881397657077,6.511920684537361 69.77814060421602,18.399338726713857 81.42425955736832,22.72736142954341" fill="rgb(71,107,129)"></polygon><polygon points="79.85672569073496,9.050177839579263 87.4896953470906,12.16659333428988 90.15103261823268,22.336123099952353" fill="rgb(74,111,133)"></polygon><polygon points="79.85672569073496,9.050177839579263 81.42425955736832,22.72736142954341 90.15103261823268,22.336123099952353" fill="rgb(60,89,109)"></polygon><polygon points="87.4896953470906,12.16659333428988 97.24947616766795,7.9331871347327 90.15103261823268,22.336123099952353" fill="rgb(74,111,133)"></polygon><polygon points="97.24947616766795,7.9331871347327 103.1094815531222,22.449442549942383 90.15103261823268,22.336123099952353" fill="rgb(57,84,104)"></polygon><polygon points="97.24947616766795,7.9331871347327 110.40572140261278,11.488339115676528 106.60752343506033,22.950195434411647" fill="rgb(99,152,178)"></polygon><polygon points="97.24947616766795,7.9331871347327 103.1094815531222,22.449442549942383 106.60752343506033,22.950195434411647" fill="rgb(85,129,153)"></polygon><polygon points="110.40572140261278,11.488339115676528 118.69226032582382,11.528640526926033 106.60752343506033,22.950195434411647" fill="rgb(93,143,168)"></polygon><polygon points="118.69226032582382,11.528640526926033 121.00514671900059,19.445339199477537 106.60752343506033,22.950195434411647" fill="rgb(88,134,158)"></polygon><polygon points="118.69226032582382,11.528640526926033 130.05489275754792,6.634437132230567 121.00514671900059,19.445339199477537" fill="rgb(93,143,168)"></polygon><polygon points="130.05489275754792,6.634437132230567 130.7780633374601,21.92849072999205 121.00514671900059,19.445339199477537" fill="rgb(57,84,104)"></polygon><polygon points="130.05489275754792,6.634437132230567 142.96130158656192,9.870363001152512 130.7780633374601,21.92849072999205" fill="rgb(121,188,217)"></polygon><polygon points="142.96130158656192,9.870363001152512 139.65622226227944,22.570023921048435 130.7780633374601,21.92849072999205" fill="rgb(115,179,207)"></polygon><polygon points="142.96130158656192,9.870363001152512 150,7.4035140234828045 150,17.43735917953923" fill="rgb(79,120,143)" class=""></polygon><polygon points="142.96130158656192,9.870363001152512 139.65622226227944,22.570023921048435 150,17.43735917953923" fill="rgb(79,120,143)" class=""></polygon><polygon points="0,20.378982373106943 10.496902332333166,20.454762203187947 0,31.70091300924847" fill="rgb(99,152,178)"></polygon><polygon points="10.496902332333166,20.454762203187947 10.663433915799073,31.289294096836056 0,31.70091300924847" fill="rgb(49,71,89)"></polygon><polygon points="10.496902332333166,20.454762203187947 20.83275822035798,19.225989401491553 20.379124568225073,31.765234100032586" fill="rgb(77,116,138)"></polygon><polygon points="10.496902332333166,20.454762203187947 10.663433915799073,31.289294096836056 20.379124568225073,31.765234100032586" fill="rgb(104,161,187)"></polygon><polygon points="20.83275822035798,19.225989401491553 27.457654901828302,21.079090398713593 28.77159352680589,29.229259156092752" fill="rgb(66,98,119)"></polygon><polygon points="20.83275822035798,19.225989401491553 20.379124568225073,31.765234100032586 28.77159352680589,29.229259156092752" fill="rgb(82,125,148)"></polygon><polygon points="27.457654901828302,21.079090398713593 38.092672718282195,17.155958379168265 28.77159352680589,29.229259156092752" fill="rgb(96,147,173)"></polygon><polygon points="38.092672718282195,17.155958379168265 42.13957770526888,30.623454844979804 28.77159352680589,29.229259156092752" fill="rgb(71,107,129)"></polygon><polygon points="38.092672718282195,17.155958379168265 51.320765225166525,17.7273101420053 42.13957770526888,30.623454844979804" fill="rgb(123,192,222)"></polygon><polygon points="51.320765225166525,17.7273101420053 50.495715845278454,26.52352362409325 42.13957770526888,30.623454844979804" fill="rgb(82,125,148)"></polygon><polygon points="51.320765225166525,17.7273101420053 62.43782666964891,21.859466868676392 58.287914895963105,32.73861772211545" fill="rgb(123,192,222)"></polygon><polygon points="51.320765225166525,17.7273101420053 50.495715845278454,26.52352362409325 58.287914895963105,32.73861772211545" fill="rgb(49,71,89)"></polygon><polygon points="62.43782666964891,21.859466868676392 69.77814060421602,18.399338726713857 58.287914895963105,32.73861772211545" fill="rgb(79,120,143)"></polygon><polygon points="69.77814060421602,18.399338726713857 69.08202900177162,30.64757752083261 58.287914895963105,32.73861772211545" fill="rgb(90,138,163)"></polygon><polygon points="69.77814060421602,18.399338726713857 81.42425955736832,22.72736142954341 82.50174751810707,27.85789150170457" fill="rgb(79,120,143)"></polygon><polygon points="69.77814060421602,18.399338726713857 69.08202900177162,30.64757752083261 82.50174751810707,27.85789150170457" fill="rgb(90,138,163)"></polygon><polygon points="81.42425955736832,22.72736142954341 90.15103261823268,22.336123099952353 86.69048556766427,31.792097848033784" fill="rgb(85,129,153)"></polygon><polygon points="81.42425955736832,22.72736142954341 82.50174751810707,27.85789150170457 86.69048556766427,31.792097848033784" fill="rgb(79,120,143)"></polygon><polygon points="90.15103261823268,22.336123099952353 103.1094815531222,22.449442549942383 86.69048556766427,31.792097848033784" fill="rgb(85,129,153)"></polygon><polygon points="103.1094815531222,22.449442549942383 101.57759367751994,31.997003985121605 86.69048556766427,31.792097848033784" fill="rgb(123,192,222)"></polygon><polygon points="103.1094815531222,22.449442549942383 106.60752343506033,22.950195434411647 101.57759367751994,31.997003985121605" fill="rgb(82,125,148)"></polygon><polygon points="106.60752343506033,22.950195434411647 111.9937099844617,30.979050624380356 101.57759367751994,31.997003985121605" fill="rgb(44,62,80)"></polygon><polygon points="106.60752343506033,22.950195434411647 121.00514671900059,19.445339199477537 119.14621584204134,32.31328466785463" fill="rgb(115,179,207)"></polygon><polygon points="106.60752343506033,22.950195434411647 111.9937099844617,30.979050624380356 119.14621584204134,32.31328466785463" fill="rgb(66,98,119)"></polygon><polygon points="121.00514671900059,19.445339199477537 130.7780633374601,21.92849072999205 119.14621584204134,32.31328466785463" fill="rgb(107,165,192)"></polygon><polygon points="130.7780633374601,21.92849072999205 127.33589085421532,27.248291209790207 119.14621584204134,32.31328466785463" fill="rgb(85,129,153)"></polygon><polygon points="130.7780633374601,21.92849072999205 139.65622226227944,22.570023921048435 127.33589085421532,27.248291209790207" fill="rgb(68,102,124)"></polygon><polygon points="139.65622226227944,22.570023921048435 138.95803536032724,26.547646324193934 127.33589085421532,27.248291209790207" fill="rgb(74,111,133)"></polygon><polygon points="139.65622226227944,22.570023921048435 150,17.43735917953923 150,33.00717892067943" fill="rgb(68,102,124)" class=""></polygon><polygon points="139.65622226227944,22.570023921048435 138.95803536032724,26.547646324193934 150,33.00717892067943" fill="rgb(96,147,173)" class=""></polygon><polygon points="0,31.70091300924847 10.663433915799073,31.289294096836056 0,43.11085140688778" fill="rgb(77,116,138)"></polygon><polygon points="10.663433915799073,31.289294096836056 7.296631969676778,41.919985293996675 0,43.11085140688778" fill="rgb(66,98,119)"></polygon><polygon points="10.663433915799073,31.289294096836056 20.379124568225073,31.765234100032586 19.870428598128434,39.53967505601269" fill="rgb(118,183,212)"></polygon><polygon points="10.663433915799073,31.289294096836056 7.296631969676778,41.919985293996675 19.870428598128434,39.53967505601269" fill="rgb(99,152,178)"></polygon><polygon points="20.379124568225073,31.765234100032586 28.77159352680589,29.229259156092752 33.39343209313099,41.84930449256462" fill="rgb(121,188,217)"></polygon><polygon points="20.379124568225073,31.765234100032586 19.870428598128434,39.53967505601269 33.39343209313099,41.84930449256462" fill="rgb(115,179,207)"></polygon><polygon points="28.77159352680589,29.229259156092752 42.13957770526888,30.623454844979804 33.39343209313099,41.84930449256462" fill="rgb(99,152,178)"></polygon><polygon points="42.13957770526888,30.623454844979804 41.91288425257109,36.64268938802037 33.39343209313099,41.84930449256462" fill="rgb(66,98,119)"></polygon><polygon points="42.13957770526888,30.623454844979804 50.495715845278454,26.52352362409325 47.4067982317256,38.49424337766341" fill="rgb(55,80,99)"></polygon><polygon points="42.13957770526888,30.623454844979804 41.91288425257109,36.64268938802037 47.4067982317256,38.49424337766341" fill="rgb(85,129,153)"></polygon><polygon points="50.495715845278454,26.52352362409325 58.287914895963105,32.73861772211545 62.57588733218244,41.12675554950103" fill="rgb(88,134,158)"></polygon><polygon points="50.495715845278454,26.52352362409325 47.4067982317256,38.49424337766341 62.57588733218244,41.12675554950103" fill="rgb(132,206,237)"></polygon><polygon points="58.287914895963105,32.73861772211545 69.08202900177162,30.64757752083261 62.57588733218244,41.12675554950103" fill="rgb(60,89,109)"></polygon><polygon points="69.08202900177162,30.64757752083261 70.69783615293812,42.003848510797226 62.57588733218244,41.12675554950103" fill="rgb(44,62,80)"></polygon><polygon points="69.08202900177162,30.64757752083261 82.50174751810707,27.85789150170457 79.49954648189868,39.799065238680036" fill="rgb(104,161,187)"></polygon><polygon points="69.08202900177162,30.64757752083261 70.69783615293812,42.003848510797226 79.49954648189868,39.799065238680036" fill="rgb(46,66,84)"></polygon><polygon points="82.50174751810707,27.85789150170457 86.69048556766427,31.792097848033784 89.16029512318207,42.86482136604957" fill="rgb(118,183,212)"></polygon><polygon points="82.50174751810707,27.85789150170457 79.49954648189868,39.799065238680036 89.16029512318207,42.86482136604957" fill="rgb(90,138,163)"></polygon><polygon points="86.69048556766427,31.792097848033784 101.57759367751994,31.997003985121605 103.0968246499121,39.4748299426699" fill="rgb(71,107,129)"></polygon><polygon points="86.69048556766427,31.792097848033784 89.16029512318207,42.86482136604957 103.0968246499121,39.4748299426699" fill="rgb(104,161,187)"></polygon><polygon points="101.57759367751994,31.997003985121605 111.9937099844617,30.979050624380356 110.19996298874143,36.879333672572386" fill="rgb(104,161,187)"></polygon><polygon points="101.57759367751994,31.997003985121605 103.0968246499121,39.4748299426699 110.19996298874143,36.879333672572386" fill="rgb(44,62,80)"></polygon><polygon points="111.9937099844617,30.979050624380356 119.14621584204134,32.31328466785463 121.54620709819157,39.30821240970945" fill="rgb(104,161,187)"></polygon><polygon points="111.9937099844617,30.979050624380356 110.19996298874143,36.879333672572386 121.54620709819157,39.30821240970945" fill="rgb(107,165,192)"></polygon><polygon points="119.14621584204134,32.31328466785463 127.33589085421532,27.248291209790207 121.54620709819157,39.30821240970945" fill="rgb(121,188,217)"></polygon><polygon points="127.33589085421532,27.248291209790207 128.8781833250675,39.52083640576404 121.54620709819157,39.30821240970945" fill="rgb(123,192,222)"></polygon><polygon points="127.33589085421532,27.248291209790207 138.95803536032724,26.547646324193934 128.8781833250675,39.52083640576404" fill="rgb(93,143,168)"></polygon><polygon points="138.95803536032724,26.547646324193934 142.48524735222523,39.668925204779086 128.8781833250675,39.52083640576404" fill="rgb(112,174,202)" class=""></polygon><polygon points="138.95803536032724,26.547646324193934 150,33.00717892067943 142.48524735222523,39.668925204779086" fill="rgb(44,62,80)" class=""></polygon><polygon points="150,33.00717892067943 150,42.16699356358971 142.48524735222523,39.668925204779086" fill="rgb(57,84,104)" class=""></polygon><polygon points="0,43.11085140688778 7.296631969676778,41.919985293996675 8.66620003422414,51.695756045295624" fill="rgb(132,206,237)"></polygon><polygon points="0,43.11085140688778 0,49.23246487350059 8.66620003422414,51.695756045295624" fill="rgb(85,129,153)"></polygon><polygon points="7.296631969676778,41.919985293996675 19.870428598128434,39.53967505601269 8.66620003422414,51.695756045295624" fill="rgb(90,138,163)"></polygon><polygon points="19.870428598128434,39.53967505601269 19.477158432016292,47.883333146109585 8.66620003422414,51.695756045295624" fill="rgb(66,98,119)"></polygon><polygon points="19.870428598128434,39.53967505601269 33.39343209313099,41.84930449256462 29.978672550436535,51.976819728697464" fill="rgb(112,174,202)"></polygon><polygon points="19.870428598128434,39.53967505601269 19.477158432016292,47.883333146109585 29.978672550436535,51.976819728697464" fill="rgb(104,161,187)"></polygon><polygon points="33.39343209313099,41.84930449256462 41.91288425257109,36.64268938802037 42.651962684615135,49.89450472289587" fill="rgb(93,143,168)"></polygon><polygon points="33.39343209313099,41.84930449256462 29.978672550436535,51.976819728697464 42.651962684615135,49.89450472289587" fill="rgb(107,165,192)"></polygon><polygon points="41.91288425257109,36.64268938802037 47.4067982317256,38.49424337766341 42.651962684615135,49.89450472289587" fill="rgb(57,84,104)"></polygon><polygon points="47.4067982317256,38.49424337766341 48.49959795040888,48.77229542805405 42.651962684615135,49.89450472289587" fill="rgb(63,93,114)"></polygon><polygon points="47.4067982317256,38.49424337766341 62.57588733218244,41.12675554950103 63.38685754020271,48.17602764070265" fill="rgb(68,102,124)"></polygon><polygon points="47.4067982317256,38.49424337766341 48.49959795040888,48.77229542805405 63.38685754020271,48.17602764070265" fill="rgb(57,84,104)"></polygon><polygon points="62.57588733218244,41.12675554950103 70.69783615293812,42.003848510797226 70.4317875111896,47.29091029738424" fill="rgb(74,111,133)"></polygon><polygon points="62.57588733218244,41.12675554950103 63.38685754020271,48.17602764070265 70.4317875111896,47.29091029738424" fill="rgb(68,102,124)"></polygon><polygon points="70.69783615293812,42.003848510797226 79.49954648189868,39.799065238680036 70.4317875111896,47.29091029738424" fill="rgb(115,179,207)"></polygon><polygon points="79.49954648189868,39.799065238680036 81.2458626341201,51.33953654697723 70.4317875111896,47.29091029738424" fill="rgb(79,120,143)"></polygon><polygon points="79.49954648189868,39.799065238680036 89.16029512318207,42.86482136604957 81.2458626341201,51.33953654697723" fill="rgb(88,134,158)"></polygon><polygon points="89.16029512318207,42.86482136604957 87.29342167657674,52.449027561291516 81.2458626341201,51.33953654697723" fill="rgb(118,183,212)"></polygon><polygon points="89.16029512318207,42.86482136604957 103.0968246499121,39.4748299426699 99.78426719466327,48.956554231964475" fill="rgb(55,80,99)"></polygon><polygon points="89.16029512318207,42.86482136604957 87.29342167657674,52.449027561291516 99.78426719466327,48.956554231964475" fill="rgb(44,62,80)"></polygon><polygon points="103.0968246499121,39.4748299426699 110.19996298874143,36.879333672572386 107.77217599725151,52.4463894466768" fill="rgb(55,80,99)"></polygon><polygon points="103.0968246499121,39.4748299426699 99.78426719466327,48.956554231964475 107.77217599725151,52.4463894466768" fill="rgb(104,161,187)"></polygon><polygon points="110.19996298874143,36.879333672572386 121.54620709819157,39.30821240970945 118.6606833222511,48.68477016001027" fill="rgb(44,62,80)"></polygon><polygon points="110.19996298874143,36.879333672572386 107.77217599725151,52.4463894466768 118.6606833222511,48.68477016001027" fill="rgb(132,206,237)"></polygon><polygon points="121.54620709819157,39.30821240970945 128.8781833250675,39.52083640576404 118.6606833222511,48.68477016001027" fill="rgb(55,80,99)"></polygon><polygon points="128.8781833250675,39.52083640576404 130.38796999516492,48.90285866598283 118.6606833222511,48.68477016001027" fill="rgb(74,111,133)"></polygon><polygon points="128.8781833250675,39.52083640576404 142.48524735222523,39.668925204779086 138.9204613027822,46.56609964339276" fill="rgb(63,93,114)" class=""></polygon><polygon points="128.8781833250675,39.52083640576404 130.38796999516492,48.90285866598283 138.9204613027822,46.56609964339276" fill="rgb(107,165,192)" class=""></polygon><polygon points="142.48524735222523,39.668925204779086 150,42.16699356358971 138.9204613027822,46.56609964339276" fill="rgb(52,75,94)" class=""></polygon><polygon points="150,42.16699356358971 150,52.09504197928838 138.9204613027822,46.56609964339276" fill="rgb(79,120,143)" class=""></polygon><polygon points="0,49.23246487350059 8.66620003422414,51.695756045295624 0,60.6108741530445" fill="rgb(132,206,237)"></polygon><polygon points="8.66620003422414,51.695756045295624 10.589592344817573,58.046724130686925 0,60.6108741530445" fill="rgb(57,84,104)"></polygon><polygon points="8.66620003422414,51.695756045295624 19.477158432016292,47.883333146109585 10.589592344817573,58.046724130686925" fill="rgb(85,129,153)"></polygon><polygon points="19.477158432016292,47.883333146109585 19.26130047599274,61.97167017285111 10.589592344817573,58.046724130686925" fill="rgb(96,147,173)"></polygon><polygon points="19.477158432016292,47.883333146109585 29.978672550436535,51.976819728697464 19.26130047599274,61.97167017285111" fill="rgb(132,206,237)"></polygon><polygon points="29.978672550436535,51.976819728697464 33.46588196130568,58.347055757972704 19.26130047599274,61.97167017285111" fill="rgb(112,174,202)"></polygon><polygon points="29.978672550436535,51.976819728697464 42.651962684615135,49.89450472289587 33.46588196130568,58.347055757972704" fill="rgb(55,80,99)"></polygon><polygon points="42.651962684615135,49.89450472289587 38.19549062989449,60.60506129942747 33.46588196130568,58.347055757972704" fill="rgb(112,174,202)"></polygon><polygon points="42.651962684615135,49.89450472289587 48.49959795040888,48.77229542805405 52.94058245879856,62.56178132698873" fill="rgb(132,206,237)"></polygon><polygon points="42.651962684615135,49.89450472289587 38.19549062989449,60.60506129942747 52.94058245879856,62.56178132698873" fill="rgb(85,129,153)"></polygon><polygon points="48.49959795040888,48.77229542805405 63.38685754020271,48.17602764070265 56.63448312311624,59.06479978008126" fill="rgb(85,129,153)"></polygon><polygon points="48.49959795040888,48.77229542805405 52.94058245879856,62.56178132698873 56.63448312311624,59.06479978008126" fill="rgb(104,161,187)"></polygon><polygon points="63.38685754020271,48.17602764070265 70.4317875111896,47.29091029738424 56.63448312311624,59.06479978008126" fill="rgb(121,188,217)"></polygon><polygon points="70.4317875111896,47.29091029738424 66.51048721654837,61.546775139729796 56.63448312311624,59.06479978008126" fill="rgb(82,125,148)"></polygon><polygon points="70.4317875111896,47.29091029738424 81.2458626341201,51.33953654697723 82.5276564539514,62.02964433793242" fill="rgb(49,71,89)"></polygon><polygon points="70.4317875111896,47.29091029738424 66.51048721654837,61.546775139729796 82.5276564539514,62.02964433793242" fill="rgb(88,134,158)"></polygon><polygon points="81.2458626341201,51.33953654697723 87.29342167657674,52.449027561291516 82.5276564539514,62.02964433793242" fill="rgb(88,134,158)"></polygon><polygon points="87.29342167657674,52.449027561291516 93.4714747035723,58.74279072527852 82.5276564539514,62.02964433793242" fill="rgb(118,183,212)"></polygon><polygon points="87.29342167657674,52.449027561291516 99.78426719466327,48.956554231964475 102.38527863134405,59.52243122070089" fill="rgb(99,152,178)"></polygon><polygon points="87.29342167657674,52.449027561291516 93.4714747035723,58.74279072527852 102.38527863134405,59.52243122070089" fill="rgb(46,66,84)"></polygon><polygon points="99.78426719466327,48.956554231964475 107.77217599725151,52.4463894466768 112.33327323989342,57.19024699830283" fill="rgb(46,66,84)"></polygon><polygon points="99.78426719466327,48.956554231964475 102.38527863134405,59.52243122070089 112.33327323989342,57.19024699830283" fill="rgb(85,129,153)"></polygon><polygon points="107.77217599725151,52.4463894466768 118.6606833222511,48.68477016001027 112.33327323989342,57.19024699830283" fill="rgb(66,98,119)"></polygon><polygon points="118.6606833222511,48.68477016001027 122.87410743764785,57.00022611907133 112.33327323989342,57.19024699830283" fill="rgb(44,62,80)"></polygon><polygon points="118.6606833222511,48.68477016001027 130.38796999516492,48.90285866598283 130.5821455672681,60.64610298124931" fill="rgb(132,206,237)"></polygon><polygon points="118.6606833222511,48.68477016001027 122.87410743764785,57.00022611907133 130.5821455672681,60.64610298124931" fill="rgb(60,89,109)"></polygon><polygon points="130.38796999516492,48.90285866598283 138.9204613027822,46.56609964339276 140.46732850991404,58.63334020596519" fill="rgb(74,111,133)" class=""></polygon><polygon points="130.38796999516492,48.90285866598283 130.5821455672681,60.64610298124931 140.46732850991404,58.63334020596519" fill="rgb(99,152,178)" class=""></polygon><polygon points="138.9204613027822,46.56609964339276 150,52.09504197928838 150,57.07634027811347" fill="rgb(60,89,109)" class=""></polygon><polygon points="138.9204613027822,46.56609964339276 140.46732850991404,58.63334020596519 150,57.07634027811347" fill="rgb(79,120,143)" class=""></polygon><polygon points="0,60.6108741530445 10.589592344817573,58.046724130686925 13.360470008529038,71.13686790469959" fill="rgb(96,147,173)"></polygon><polygon points="0,60.6108741530445 0,67.50350800337314 13.360470008529038,71.13686790469959" fill="rgb(79,120,143)"></polygon><polygon points="10.589592344817573,58.046724130686925 19.26130047599274,61.97167017285111 19.177138471588616,68.7324106217408" fill="rgb(68,102,124)"></polygon><polygon points="10.589592344817573,58.046724130686925 13.360470008529038,71.13686790469959 19.177138471588616,68.7324106217408" fill="rgb(52,75,94)"></polygon><polygon points="19.26130047599274,61.97167017285111 33.46588196130568,58.347055757972704 19.177138471588616,68.7324106217408" fill="rgb(44,62,80)"></polygon><polygon points="33.46588196130568,58.347055757972704 29.07265012817461,67.60650157785604 19.177138471588616,68.7324106217408" fill="rgb(96,147,173)"></polygon><polygon points="33.46588196130568,58.347055757972704 38.19549062989449,60.60506129942747 39.04227589303518,68.12031830646687" fill="rgb(93,143,168)"></polygon><polygon points="33.46588196130568,58.347055757972704 29.07265012817461,67.60650157785604 39.04227589303518,68.12031830646687" fill="rgb(52,75,94)"></polygon><polygon points="38.19549062989449,60.60506129942747 52.94058245879856,62.56178132698873 39.04227589303518,68.12031830646687" fill="rgb(123,192,222)"></polygon><polygon points="52.94058245879856,62.56178132698873 47.84740336209818,71.6541223475423 39.04227589303518,68.12031830646687" fill="rgb(44,62,80)"></polygon><polygon points="52.94058245879856,62.56178132698873 56.63448312311624,59.06479978008126 58.258036570781535,71.79242023748247" fill="rgb(44,62,80)"></polygon><polygon points="52.94058245879856,62.56178132698873 47.84740336209818,71.6541223475423 58.258036570781535,71.79242023748247" fill="rgb(60,89,109)"></polygon><polygon points="56.63448312311624,59.06479978008126 66.51048721654837,61.546775139729796 58.258036570781535,71.79242023748247" fill="rgb(96,147,173)"></polygon><polygon points="66.51048721654837,61.546775139729796 66.80002646289084,72.75561764174803 58.258036570781535,71.79242023748247" fill="rgb(121,188,217)"></polygon><polygon points="66.51048721654837,61.546775139729796 82.5276564539514,62.02964433793242 82.88303258139736,67.98760689853452" fill="rgb(52,75,94)"></polygon><polygon points="66.51048721654837,61.546775139729796 66.80002646289084,72.75561764174803 82.88303258139736,67.98760689853452" fill="rgb(99,152,178)"></polygon><polygon points="82.5276564539514,62.02964433793242 93.4714747035723,58.74279072527852 82.88303258139736,67.98760689853452" fill="rgb(55,80,99)"></polygon><polygon points="93.4714747035723,58.74279072527852 87.24266704621003,70.7959234181619 82.88303258139736,67.98760689853452" fill="rgb(66,98,119)"></polygon><polygon points="93.4714747035723,58.74279072527852 102.38527863134405,59.52243122070089 102.46999094996643,70.25025672261307" fill="rgb(110,170,197)"></polygon><polygon points="93.4714747035723,58.74279072527852 87.24266704621003,70.7959234181619 102.46999094996643,70.25025672261307" fill="rgb(90,138,163)"></polygon><polygon points="102.38527863134405,59.52243122070089 112.33327323989342,57.19024699830283 106.95917240916918,72.03614451899163" fill="rgb(57,84,104)"></polygon><polygon points="102.38527863134405,59.52243122070089 102.46999094996643,70.25025672261307 106.95917240916918,72.03614451899163" fill="rgb(123,192,222)"></polygon><polygon points="112.33327323989342,57.19024699830283 122.87410743764785,57.00022611907133 106.95917240916918,72.03614451899163" fill="rgb(52,75,94)"></polygon><polygon points="122.87410743764785,57.00022611907133 120.14678808632571,70.40201213092209 106.95917240916918,72.03614451899163" fill="rgb(132,206,237)"></polygon><polygon points="122.87410743764785,57.00022611907133 130.5821455672681,60.64610298124931 127.74404038182277,67.79104293555852" fill="rgb(52,75,94)"></polygon><polygon points="122.87410743764785,57.00022611907133 120.14678808632571,70.40201213092209 127.74404038182277,67.79104293555852" fill="rgb(90,138,163)"></polygon><polygon points="130.5821455672681,60.64610298124931 140.46732850991404,58.63334020596519 138.04016465013626,68.42229091472578" fill="rgb(49,71,89)" class=""></polygon><polygon points="130.5821455672681,60.64610298124931 127.74404038182277,67.79104293555852 138.04016465013626,68.42229091472578" fill="rgb(57,84,104)"></polygon><polygon points="140.46732850991404,58.63334020596519 150,57.07634027811347 138.04016465013626,68.42229091472578" fill="rgb(96,147,173)" class=""></polygon><polygon points="150,57.07634027811347 150,72.67097125303226 138.04016465013626,68.42229091472578" fill="rgb(99,152,178)" class=""></polygon><polygon points="0,67.50350800337314 13.360470008529038,71.13686790469959 0,82.59371316909599" fill="rgb(44,62,80)"></polygon><polygon points="13.360470008529038,71.13686790469959 11.067880818600614,76.96528196424079 0,82.59371316909599" fill="rgb(110,170,197)"></polygon><polygon points="13.360470008529038,71.13686790469959 19.177138471588616,68.7324106217408 11.067880818600614,76.96528196424079" fill="rgb(93,143,168)"></polygon><polygon points="19.177138471588616,68.7324106217408 20.314767620159746,79.4345958666736 11.067880818600614,76.96528196424079" fill="rgb(68,102,124)"></polygon><polygon points="19.177138471588616,68.7324106217408 29.07265012817461,67.60650157785604 29.34361776185488,79.07527120071074" fill="rgb(46,66,84)"></polygon><polygon points="19.177138471588616,68.7324106217408 20.314767620159746,79.4345958666736 29.34361776185488,79.07527120071074" fill="rgb(88,134,158)"></polygon><polygon points="29.07265012817461,67.60650157785604 39.04227589303518,68.12031830646687 41.2289452553107,81.20615462672367" fill="rgb(104,161,187)"></polygon><polygon points="29.07265012817461,67.60650157785604 29.34361776185488,79.07527120071074 41.2289452553107,81.20615462672367" fill="rgb(52,75,94)"></polygon><polygon points="39.04227589303518,68.12031830646687 47.84740336209818,71.6541223475423 41.2289452553107,81.20615462672367" fill="rgb(101,156,183)"></polygon><polygon points="47.84740336209818,71.6541223475423 47.9567332378648,78.00409624639057 41.2289452553107,81.20615462672367" fill="rgb(88,134,158)"></polygon><polygon points="47.84740336209818,71.6541223475423 58.258036570781535,71.79242023748247 60.59597310351513,79.00730286884387" fill="rgb(82,125,148)"></polygon><polygon points="47.84740336209818,71.6541223475423 47.9567332378648,78.00409624639057 60.59597310351513,79.00730286884387" fill="rgb(44,62,80)"></polygon><polygon points="58.258036570781535,71.79242023748247 66.80002646289084,72.75561764174803 71.37361542872608,80.74353943624257" fill="rgb(71,107,129)"></polygon><polygon points="58.258036570781535,71.79242023748247 60.59597310351513,79.00730286884387 71.37361542872608,80.74353943624257" fill="rgb(44,62,80)"></polygon><polygon points="66.80002646289084,72.75561764174803 82.88303258139736,67.98760689853452 80.44297751109599,82.6481805695835" fill="rgb(115,179,207)"></polygon><polygon points="66.80002646289084,72.75561764174803 71.37361542872608,80.74353943624257 80.44297751109599,82.6481805695835" fill="rgb(115,179,207)"></polygon><polygon points="82.88303258139736,67.98760689853452 87.24266704621003,70.7959234181619 92.29832319755796,80.69023120938621" fill="rgb(63,93,114)"></polygon><polygon points="82.88303258139736,67.98760689853452 80.44297751109599,82.6481805695835 92.29832319755796,80.69023120938621" fill="rgb(101,156,183)"></polygon><polygon points="87.24266704621003,70.7959234181619 102.46999094996643,70.25025672261307 92.29832319755796,80.69023120938621" fill="rgb(115,179,207)"></polygon><polygon points="102.46999094996643,70.25025672261307 100.50722950892509,78.59446923408062 92.29832319755796,80.69023120938621" fill="rgb(121,188,217)"></polygon><polygon points="102.46999094996643,70.25025672261307 106.95917240916918,72.03614451899163 100.50722950892509,78.59446923408062" fill="rgb(52,75,94)"></polygon><polygon points="106.95917240916918,72.03614451899163 107.78205165131713,79.01059231448866 100.50722950892509,78.59446923408062" fill="rgb(123,192,222)"></polygon><polygon points="106.95917240916918,72.03614451899163 120.14678808632571,70.40201213092209 107.78205165131713,79.01059231448866" fill="rgb(77,116,138)"></polygon><polygon points="120.14678808632571,70.40201213092209 122.7058384349049,82.409998707606 107.78205165131713,79.01059231448866" fill="rgb(107,165,192)"></polygon><polygon points="120.14678808632571,70.40201213092209 127.74404038182277,67.79104293555852 122.7058384349049,82.409998707606" fill="rgb(77,116,138)"></polygon><polygon points="127.74404038182277,67.79104293555852 131.4302336351603,77.08028133844905 122.7058384349049,82.409998707606" fill="rgb(107,165,192)"></polygon><polygon points="127.74404038182277,67.79104293555852 138.04016465013626,68.42229091472578 142.08835266551162,83.31032840753505" fill="rgb(90,138,163)" class=""></polygon><polygon points="127.74404038182277,67.79104293555852 131.4302336351603,77.08028133844905 142.08835266551162,83.31032840753505" fill="rgb(104,161,187)" class=""></polygon><polygon points="138.04016465013626,68.42229091472578 150,72.67097125303226 150,81.41187333600884" fill="rgb(121,188,217)" class=""></polygon><polygon points="138.04016465013626,68.42229091472578 142.08835266551162,83.31032840753505 150,81.41187333600884" fill="rgb(110,170,197)" class=""></polygon><polygon points="0,82.59371316909599 11.067880818600614,76.96528196424079 0,92.69379441512254" fill="rgb(104,161,187)"></polygon><polygon points="11.067880818600614,76.96528196424079 10.218596375788032,92.52618406654311 0,92.69379441512254" fill="rgb(123,192,222)"></polygon><polygon points="11.067880818600614,76.96528196424079 20.314767620159746,79.4345958666736 10.218596375788032,92.52618406654311" fill="rgb(63,93,114)"></polygon><polygon points="20.314767620159746,79.4345958666736 19.678343025899835,90.82754732544552 10.218596375788032,92.52618406654311" fill="rgb(44,62,80)"></polygon><polygon points="20.314767620159746,79.4345958666736 29.34361776185488,79.07527120071074 26.865342017872837,91.08451730496469" fill="rgb(77,116,138)"></polygon><polygon points="20.314767620159746,79.4345958666736 19.678343025899835,90.82754732544552 26.865342017872837,91.08451730496469" fill="rgb(96,147,173)"></polygon><polygon points="29.34361776185488,79.07527120071074 41.2289452553107,81.20615462672367 36.747365836569706,92.46457615595503" fill="rgb(63,93,114)"></polygon><polygon points="29.34361776185488,79.07527120071074 26.865342017872837,91.08451730496469 36.747365836569706,92.46457615595503" fill="rgb(63,93,114)"></polygon><polygon points="41.2289452553107,81.20615462672367 47.9567332378648,78.00409624639057 36.747365836569706,92.46457615595503" fill="rgb(74,111,133)"></polygon><polygon points="47.9567332378648,78.00409624639057 51.2262600046154,92.25120139513962 36.747365836569706,92.46457615595503" fill="rgb(49,71,89)"></polygon><polygon points="47.9567332378648,78.00409624639057 60.59597310351513,79.00730286884387 63.01569054447957,93.25522317591464" fill="rgb(115,179,207)"></polygon><polygon points="47.9567332378648,78.00409624639057 51.2262600046154,92.25120139513962 63.01569054447957,93.25522317591464" fill="rgb(123,192,222)"></polygon><polygon points="60.59597310351513,79.00730286884387 71.37361542872608,80.74353943624257 63.01569054447957,93.25522317591464" fill="rgb(44,62,80)"></polygon><polygon points="71.37361542872608,80.74353943624257 73.22422273016086,91.06666935314537 63.01569054447957,93.25522317591464" fill="rgb(110,170,197)"></polygon><polygon points="71.37361542872608,80.74353943624257 80.44297751109599,82.6481805695835 73.22422273016086,91.06666935314537" fill="rgb(99,152,178)"></polygon><polygon points="80.44297751109599,82.6481805695835 82.7993107640343,88.01664517302785 73.22422273016086,91.06666935314537" fill="rgb(118,183,212)"></polygon><polygon points="80.44297751109599,82.6481805695835 92.29832319755796,80.69023120938621 88.44330213139257,87.67341086301106" fill="rgb(44,62,80)"></polygon><polygon points="80.44297751109599,82.6481805695835 82.7993107640343,88.01664517302785 88.44330213139257,87.67341086301106" fill="rgb(107,165,192)"></polygon><polygon points="92.29832319755796,80.69023120938621 100.50722950892509,78.59446923408062 88.44330213139257,87.67341086301106" fill="rgb(52,75,94)"></polygon><polygon points="100.50722950892509,78.59446923408062 101.38253486568064,91.72755479107414 88.44330213139257,87.67341086301106" fill="rgb(104,161,187)"></polygon><polygon points="100.50722950892509,78.59446923408062 107.78205165131713,79.01059231448866 112.16530301641443,92.52515692667505" fill="rgb(118,183,212)"></polygon><polygon points="100.50722950892509,78.59446923408062 101.38253486568064,91.72755479107414 112.16530301641443,92.52515692667505" fill="rgb(90,138,163)"></polygon><polygon points="107.78205165131713,79.01059231448866 122.7058384349049,82.409998707606 112.16530301641443,92.52515692667505" fill="rgb(107,165,192)"></polygon><polygon points="122.7058384349049,82.409998707606 121.44375116208074,92.20383629341096 112.16530301641443,92.52515692667505" fill="rgb(88,134,158)"></polygon><polygon points="122.7058384349049,82.409998707606 131.4302336351603,77.08028133844905 129.53962453552853,92.11001714644874" fill="rgb(132,206,237)"></polygon><polygon points="122.7058384349049,82.409998707606 121.44375116208074,92.20383629341096 129.53962453552853,92.11001714644874" fill="rgb(121,188,217)"></polygon><polygon points="131.4302336351603,77.08028133844905 142.08835266551162,83.31032840753505 129.53962453552853,92.11001714644874" fill="rgb(123,192,222)" class=""></polygon><polygon points="142.08835266551162,83.31032840753505 142.26600602399586,92.84979809723391 129.53962453552853,92.11001714644874" fill="rgb(99,152,178)" class=""></polygon><polygon points="142.08835266551162,83.31032840753505 150,81.41187333600884 142.26600602399586,92.84979809723391" fill="rgb(74,111,133)" class=""></polygon><polygon points="150,81.41187333600884 150,92.53248976611948 142.26600602399586,92.84979809723391" fill="rgb(71,107,129)"></polygon><polygon points="0,92.69379441512254 10.218596375788032,92.52618406654311 0,98.00304068895205" fill="rgb(44,62,80)"></polygon><polygon points="10.218596375788032,92.52618406654311 8.712558123291608,98.20896464474883 0,98.00304068895205" fill="rgb(104,161,187)"></polygon><polygon points="10.218596375788032,92.52618406654311 19.678343025899835,90.82754732544552 18.87768342826933,101.0455534414557" fill="rgb(44,62,80)"></polygon><polygon points="10.218596375788032,92.52618406654311 8.712558123291608,98.20896464474883 18.87768342826933,101.0455534414557" fill="rgb(110,170,197)"></polygon><polygon points="19.678343025899835,90.82754732544552 26.865342017872837,91.08451730496469 18.87768342826933,101.0455534414557" fill="rgb(79,120,143)"></polygon><polygon points="26.865342017872837,91.08451730496469 28.13183311985915,99.99888521544389 18.87768342826933,101.0455534414557" fill="rgb(44,62,80)"></polygon><polygon points="26.865342017872837,91.08451730496469 36.747365836569706,92.46457615595503 28.13183311985915,99.99888521544389" fill="rgb(68,102,124)"></polygon><polygon points="36.747365836569706,92.46457615595503 37.33964382885305,99.36148742252115 28.13183311985915,99.99888521544389" fill="rgb(44,62,80)"></polygon><polygon points="36.747365836569706,92.46457615595503 51.2262600046154,92.25120139513962 37.33964382885305,99.36148742252115" fill="rgb(132,206,237)"></polygon><polygon points="51.2262600046154,92.25120139513962 51.43159184570232,100.60542130468117 37.33964382885305,99.36148742252115" fill="rgb(90,138,163)"></polygon><polygon points="51.2262600046154,92.25120139513962 63.01569054447957,93.25522317591464 60.852099577905584,102.98642087128442" fill="rgb(46,66,84)"></polygon><polygon points="51.2262600046154,92.25120139513962 51.43159184570232,100.60542130468117 60.852099577905584,102.98642087128442" fill="rgb(110,170,197)"></polygon><polygon points="63.01569054447957,93.25522317591464 73.22422273016086,91.06666935314537 73.13958630239547,101.3742739376923" fill="rgb(101,156,183)"></polygon><polygon points="63.01569054447957,93.25522317591464 60.852099577905584,102.98642087128442 73.13958630239547,101.3742739376923" fill="rgb(88,134,158)"></polygon><polygon points="73.22422273016086,91.06666935314537 82.7993107640343,88.01664517302785 73.13958630239547,101.3742739376923" fill="rgb(88,134,158)"></polygon><polygon points="82.7993107640343,88.01664517302785 80.55127667579964,99.53592192881169 73.13958630239547,101.3742739376923" fill="rgb(71,107,129)"></polygon><polygon points="82.7993107640343,88.01664517302785 88.44330213139257,87.67341086301106 89.5356907414618,96.69381782391626" fill="rgb(115,179,207)"></polygon><polygon points="82.7993107640343,88.01664517302785 80.55127667579964,99.53592192881169 89.5356907414618,96.69381782391626" fill="rgb(110,170,197)"></polygon><polygon points="88.44330213139257,87.67341086301106 101.38253486568064,91.72755479107414 99.66648781079266,97.43172065266879" fill="rgb(57,84,104)"></polygon><polygon points="88.44330213139257,87.67341086301106 89.5356907414618,96.69381782391626 99.66648781079266,97.43172065266879" fill="rgb(110,170,197)"></polygon><polygon points="101.38253486568064,91.72755479107414 112.16530301641443,92.52515692667505 99.66648781079266,97.43172065266879" fill="rgb(63,93,114)"></polygon><polygon points="112.16530301641443,92.52515692667505 112.31070679423418,102.97358963647355 99.66648781079266,97.43172065266879" fill="rgb(49,71,89)"></polygon><polygon points="112.16530301641443,92.52515692667505 121.44375116208074,92.20383629341096 112.31070679423418,102.97358963647355" fill="rgb(82,125,148)"></polygon><polygon points="121.44375116208074,92.20383629341096 121.21001646584631,102.11578963983568 112.31070679423418,102.97358963647355" fill="rgb(118,183,212)"></polygon><polygon points="121.44375116208074,92.20383629341096 129.53962453552853,92.11001714644874 121.21001646584631,102.11578963983568" fill="rgb(68,102,124)"></polygon><polygon points="129.53962453552853,92.11001714644874 128.03181858274073,99.88575197663938 121.21001646584631,102.11578963983568" fill="rgb(96,147,173)"></polygon><polygon points="129.53962453552853,92.11001714644874 142.26600602399586,92.84979809723391 128.03181858274073,99.88575197663938" fill="rgb(68,102,124)" class=""></polygon><polygon points="142.26600602399586,92.84979809723391 142.47985008987388,97.80043721427107 128.03181858274073,99.88575197663938" fill="rgb(44,62,80)" class=""></polygon><polygon points="142.26600602399586,92.84979809723391 150,92.53248976611948 142.47985008987388,97.80043721427107" fill="rgb(101,156,183)"></polygon><polygon points="150,92.53248976611948 150,97.4562315822655 142.47985008987388,97.80043721427107" fill="rgb(115,179,207)"></polygon><polygon points="0,98.00304068895205 8.712558123291608,98.20896464474883 0,108.1945353662094" fill="rgb(93,143,168)"></polygon><polygon points="8.712558123291608,98.20896464474883 11.649165427206283,109.89058783493306 0,108.1945353662094" fill="rgb(74,111,133)"></polygon><polygon points="8.712558123291608,98.20896464474883 18.87768342826933,101.0455534414557 11.649165427206283,109.89058783493306" fill="rgb(71,107,129)"></polygon><polygon points="18.87768342826933,101.0455534414557 23.289462986771476,107.69724926814726 11.649165427206283,109.89058783493306" fill="rgb(63,93,114)"></polygon><polygon points="18.87768342826933,101.0455534414557 28.13183311985915,99.99888521544389 31.360908061370544,109.43195239015638" fill="rgb(101,156,183)"></polygon><polygon points="18.87768342826933,101.0455534414557 23.289462986771476,107.69724926814726 31.360908061370544,109.43195239015638" fill="rgb(74,111,133)"></polygon><polygon points="28.13183311985915,99.99888521544389 37.33964382885305,99.36148742252115 38.7071863369545,112.11984726310374" fill="rgb(123,192,222)"></polygon><polygon points="28.13183311985915,99.99888521544389 31.360908061370544,109.43195239015638 38.7071863369545,112.11984726310374" fill="rgb(66,98,119)"></polygon><polygon points="37.33964382885305,99.36148742252115 51.43159184570232,100.60542130468117 38.7071863369545,112.11984726310374" fill="rgb(104,161,187)"></polygon><polygon points="51.43159184570232,100.60542130468117 51.710343907724784,109.65138678722876 38.7071863369545,112.11984726310374" fill="rgb(88,134,158)"></polygon><polygon points="51.43159184570232,100.60542130468117 60.852099577905584,102.98642087128442 51.710343907724784,109.65138678722876" fill="rgb(121,188,217)"></polygon><polygon points="60.852099577905584,102.98642087128442 61.58735772839028,112.58330729348472 51.710343907724784,109.65138678722876" fill="rgb(123,192,222)"></polygon><polygon points="60.852099577905584,102.98642087128442 73.13958630239547,101.3742739376923 67.68207728343081,106.64374738907964" fill="rgb(74,111,133)"></polygon><polygon points="60.852099577905584,102.98642087128442 61.58735772839028,112.58330729348472 67.68207728343081,106.64374738907964" fill="rgb(44,62,80)"></polygon><polygon points="73.13958630239547,101.3742739376923 80.55127667579964,99.53592192881169 67.68207728343081,106.64374738907964" fill="rgb(85,129,153)"></polygon><polygon points="80.55127667579964,99.53592192881169 82.3742157233321,111.9314276857243 67.68207728343081,106.64374738907964" fill="rgb(44,62,80)"></polygon><polygon points="80.55127667579964,99.53592192881169 89.5356907414618,96.69381782391626 82.3742157233321,111.9314276857243" fill="rgb(49,71,89)"></polygon><polygon points="89.5356907414618,96.69381782391626 90.55597058554835,110.79796202957651 82.3742157233321,111.9314276857243" fill="rgb(55,80,99)"></polygon><polygon points="89.5356907414618,96.69381782391626 99.66648781079266,97.43172065266879 90.55597058554835,110.79796202957651" fill="rgb(68,102,124)"></polygon><polygon points="99.66648781079266,97.43172065266879 98.91022575257794,111.1288593227746 90.55597058554835,110.79796202957651" fill="rgb(44,62,80)"></polygon><polygon points="99.66648781079266,97.43172065266879 112.31070679423418,102.97358963647355 107.18638484143062,112.79975403711283" fill="rgb(93,143,168)"></polygon><polygon points="99.66648781079266,97.43172065266879 98.91022575257794,111.1288593227746 107.18638484143062,112.79975403711283" fill="rgb(71,107,129)"></polygon><polygon points="112.31070679423418,102.97358963647355 121.21001646584631,102.11578963983568 117.21110378828075,108.73142552587791" fill="rgb(93,143,168)"></polygon><polygon points="112.31070679423418,102.97358963647355 107.18638484143062,112.79975403711283 117.21110378828075,108.73142552587791" fill="rgb(104,161,187)"></polygon><polygon points="121.21001646584631,102.11578963983568 128.03181858274073,99.88575197663938 127.48528285285522,111.61837652148083" fill="rgb(49,71,89)"></polygon><polygon points="121.21001646584631,102.11578963983568 117.21110378828075,108.73142552587791 127.48528285285522,111.61837652148083" fill="rgb(112,174,202)"></polygon><polygon points="128.03181858274073,99.88575197663938 142.47985008987388,97.80043721427107 127.48528285285522,111.61837652148083" fill="rgb(85,129,153)" class=""></polygon><polygon points="142.47985008987388,97.80043721427107 141.78555848529382,109.77067142116312 127.48528285285522,111.61837652148083" fill="rgb(99,152,178)" class=""></polygon><polygon points="142.47985008987388,97.80043721427107 150,97.4562315822655 141.78555848529382,109.77067142116312" fill="rgb(85,129,153)" class=""></polygon><polygon points="150,97.4562315822655 150,110.94200175104086 141.78555848529382,109.77067142116312" fill="rgb(115,179,207)"></polygon><polygon points="0,108.1945353662094 11.649165427206283,109.89058783493306 10.9864738180998,121.2816657655569" fill="rgb(110,170,197)"></polygon><polygon points="0,108.1945353662094 0,117.19101054504691 10.9864738180998,121.2816657655569" fill="rgb(132,206,237)"></polygon><polygon points="11.649165427206283,109.89058783493306 23.289462986771476,107.69724926814726 20.758996497245004,122.55930616944654" fill="rgb(55,80,99)"></polygon><polygon points="11.649165427206283,109.89058783493306 10.9864738180998,121.2816657655569 20.758996497245004,122.55930616944654" fill="rgb(63,93,114)"></polygon><polygon points="23.289462986771476,107.69724926814726 31.360908061370544,109.43195239015638 30.59951150148879,122.09240256126513" fill="rgb(104,161,187)"></polygon><polygon points="23.289462986771476,107.69724926814726 20.758996497245004,122.55930616944654 30.59951150148879,122.09240256126513" fill="rgb(49,71,89)"></polygon><polygon points="31.360908061370544,109.43195239015638 38.7071863369545,112.11984726310374 30.59951150148879,122.09240256126513" fill="rgb(88,134,158)"></polygon><polygon points="38.7071863369545,112.11984726310374 42.80165829256524,122.39237848761626 30.59951150148879,122.09240256126513" fill="rgb(49,71,89)"></polygon><polygon points="38.7071863369545,112.11984726310374 51.710343907724784,109.65138678722876 53.112683886308076,119.58439691436594" fill="rgb(60,89,109)"></polygon><polygon points="38.7071863369545,112.11984726310374 42.80165829256524,122.39237848761626 53.112683886308076,119.58439691436594" fill="rgb(85,129,153)"></polygon><polygon points="51.710343907724784,109.65138678722876 61.58735772839028,112.58330729348472 60.975943339182386,121.13309957042595" fill="rgb(96,147,173)"></polygon><polygon points="51.710343907724784,109.65138678722876 53.112683886308076,119.58439691436594 60.975943339182386,121.13309957042595" fill="rgb(104,161,187)"></polygon><polygon points="61.58735772839028,112.58330729348472 67.68207728343081,106.64374738907964 60.975943339182386,121.13309957042595" fill="rgb(71,107,129)"></polygon><polygon points="67.68207728343081,106.64374738907964 66.92973683130295,121.75722098338184 60.975943339182386,121.13309957042595" fill="rgb(55,80,99)"></polygon><polygon points="67.68207728343081,106.64374738907964 82.3742157233321,111.9314276857243 66.92973683130295,121.75722098338184" fill="rgb(115,179,207)"></polygon><polygon points="82.3742157233321,111.9314276857243 78.36472847906428,121.9941780226857 66.92973683130295,121.75722098338184" fill="rgb(82,125,148)"></polygon><polygon points="82.3742157233321,111.9314276857243 90.55597058554835,110.79796202957651 89.4208071271402,118.31409245857665" fill="rgb(123,192,222)"></polygon><polygon points="82.3742157233321,111.9314276857243 78.36472847906428,121.9941780226857 89.4208071271402,118.31409245857665" fill="rgb(49,71,89)"></polygon><polygon points="90.55597058554835,110.79796202957651 98.91022575257794,111.1288593227746 100.33146520996287,120.1310658469027" fill="rgb(99,152,178)"></polygon><polygon points="90.55597058554835,110.79796202957651 89.4208071271402,118.31409245857665 100.33146520996287,120.1310658469027" fill="rgb(49,71,89)"></polygon><polygon points="98.91022575257794,111.1288593227746 107.18638484143062,112.79975403711283 107.05988172537819,118.64808094663654" fill="rgb(88,134,158)"></polygon><polygon points="98.91022575257794,111.1288593227746 100.33146520996287,120.1310658469027 107.05988172537819,118.64808094663654" fill="rgb(77,116,138)"></polygon><polygon points="107.18638484143062,112.79975403711283 117.21110378828075,108.73142552587791 107.05988172537819,118.64808094663654" fill="rgb(112,174,202)"></polygon><polygon points="117.21110378828075,108.73142552587791 123.24117708283386,121.79318849215719 107.05988172537819,118.64808094663654" fill="rgb(79,120,143)"></polygon><polygon points="117.21110378828075,108.73142552587791 127.48528285285522,111.61837652148083 123.24117708283386,121.79318849215719" fill="rgb(107,165,192)"></polygon><polygon points="127.48528285285522,111.61837652148083 127.45654823271444,121.9736904649327 123.24117708283386,121.79318849215719" fill="rgb(74,111,133)"></polygon><polygon points="127.48528285285522,111.61837652148083 141.78555848529382,109.77067142116312 127.45654823271444,121.9736904649327" fill="rgb(68,102,124)"></polygon><polygon points="141.78555848529382,109.77067142116312 139.6806309973299,122.96886361848254 127.45654823271444,121.9736904649327" fill="rgb(44,62,80)"></polygon><polygon points="141.78555848529382,109.77067142116312 150,110.94200175104086 139.6806309973299,122.96886361848254" fill="rgb(88,134,158)"></polygon><polygon points="150,110.94200175104086 150,118.17361633294588 139.6806309973299,122.96886361848254" fill="rgb(85,129,153)"></polygon><polygon points="0,117.19101054504691 10.9864738180998,121.2816657655569 10.231677222811092,128.0872647794561" fill="rgb(85,129,153)"></polygon><polygon points="0,117.19101054504691 0,129.16898294865518 10.231677222811092,128.0872647794561" fill="rgb(88,134,158)"></polygon><polygon points="10.9864738180998,121.2816657655569 20.758996497245004,122.55930616944654 10.231677222811092,128.0872647794561" fill="rgb(99,152,178)"></polygon><polygon points="20.758996497245004,122.55930616944654 22.01233145455674,130.78682521605813 10.231677222811092,128.0872647794561" fill="rgb(55,80,99)"></polygon><polygon points="20.758996497245004,122.55930616944654 30.59951150148879,122.09240256126513 27.749844457530134,131.9667149236678" fill="rgb(107,165,192)"></polygon><polygon points="20.758996497245004,122.55930616944654 22.01233145455674,130.78682521605813 27.749844457530134,131.9667149236678" fill="rgb(82,125,148)"></polygon><polygon points="30.59951150148879,122.09240256126513 42.80165829256524,122.39237848761626 43.06514092763289,133.38827935374442" fill="rgb(55,80,99)"></polygon><polygon points="30.59951150148879,122.09240256126513 27.749844457530134,131.9667149236678 43.06514092763289,133.38827935374442" fill="rgb(121,188,217)"></polygon><polygon points="42.80165829256524,122.39237848761626 53.112683886308076,119.58439691436594 43.06514092763289,133.38827935374442" fill="rgb(104,161,187)"></polygon><polygon points="53.112683886308076,119.58439691436594 51.86361677005924,133.41541554553618 43.06514092763289,133.38827935374442" fill="rgb(74,111,133)"></polygon><polygon points="53.112683886308076,119.58439691436594 60.975943339182386,121.13309957042595 56.575586073466916,130.0988244849242" fill="rgb(79,120,143)"></polygon><polygon points="53.112683886308076,119.58439691436594 51.86361677005924,133.41541554553618 56.575586073466916,130.0988244849242" fill="rgb(115,179,207)"></polygon><polygon points="60.975943339182386,121.13309957042595 66.92973683130295,121.75722098338184 56.575586073466916,130.0988244849242" fill="rgb(132,206,237)"></polygon><polygon points="66.92973683130295,121.75722098338184 68.6508421174612,129.25454027908154 56.575586073466916,130.0988244849242" fill="rgb(107,165,192)"></polygon><polygon points="66.92973683130295,121.75722098338184 78.36472847906428,121.9941780226857 79.16774244771804,126.83790632409118" fill="rgb(132,206,237)"></polygon><polygon points="66.92973683130295,121.75722098338184 68.6508421174612,129.25454027908154 79.16774244771804,126.83790632409118" fill="rgb(107,165,192)"></polygon><polygon points="78.36472847906428,121.9941780226857 89.4208071271402,118.31409245857665 92.11953043002133,131.04262891892233" fill="rgb(57,84,104)"></polygon><polygon points="78.36472847906428,121.9941780226857 79.16774244771804,126.83790632409118 92.11953043002133,131.04262891892233" fill="rgb(63,93,114)"></polygon><polygon points="89.4208071271402,118.31409245857665 100.33146520996287,120.1310658469027 101.40572635883535,130.37383072737688" fill="rgb(104,161,187)"></polygon><polygon points="89.4208071271402,118.31409245857665 92.11953043002133,131.04262891892233 101.40572635883535,130.37383072737688" fill="rgb(132,206,237)"></polygon><polygon points="100.33146520996287,120.1310658469027 107.05988172537819,118.64808094663654 101.40572635883535,130.37383072737688" fill="rgb(46,66,84)"></polygon><polygon points="107.05988172537819,118.64808094663654 111.4280761311883,130.13611906059478 101.40572635883535,130.37383072737688" fill="rgb(115,179,207)"></polygon><polygon points="107.05988172537819,118.64808094663654 123.24117708283386,121.79318849215719 111.4280761311883,130.13611906059478" fill="rgb(121,188,217)"></polygon><polygon points="123.24117708283386,121.79318849215719 118.84312899096184,133.34929741214648 111.4280761311883,130.13611906059478" fill="rgb(115,179,207)"></polygon><polygon points="123.24117708283386,121.79318849215719 127.45654823271444,121.9736904649327 130.94622326211177,131.8273487758945" fill="rgb(96,147,173)"></polygon><polygon points="123.24117708283386,121.79318849215719 118.84312899096184,133.34929741214648 130.94622326211177,131.8273487758945" fill="rgb(55,80,99)"></polygon><polygon points="127.45654823271444,121.9736904649327 139.6806309973299,122.96886361848254 141.37600232060908,127.05241666979835" fill="rgb(66,98,119)"></polygon><polygon points="127.45654823271444,121.9736904649327 130.94622326211177,131.8273487758945 141.37600232060908,127.05241666979835" fill="rgb(93,143,168)"></polygon><polygon points="139.6806309973299,122.96886361848254 150,118.17361633294588 141.37600232060908,127.05241666979835" fill="rgb(44,62,80)"></polygon><polygon points="150,118.17361633294588 150,132.23017751195178 141.37600232060908,127.05241666979835" fill="rgb(68,102,124)"></polygon><polygon points="0,129.16898294865518 10.231677222811092,128.0872647794561 0,139.12365452517088" fill="rgb(44,62,80)"></polygon><polygon points="10.231677222811092,128.0872647794561 9.521893158657326,141.75389588700597 0,139.12365452517088" fill="rgb(49,71,89)"></polygon><polygon points="10.231677222811092,128.0872647794561 22.01233145455674,130.78682521605813 21.328915733407243,140.9131189242789" fill="rgb(79,120,143)"></polygon><polygon points="10.231677222811092,128.0872647794561 9.521893158657326,141.75389588700597 21.328915733407243,140.9131189242789" fill="rgb(101,156,183)"></polygon><polygon points="22.01233145455674,130.78682521605813 27.749844457530134,131.9667149236678 21.328915733407243,140.9131189242789" fill="rgb(123,192,222)"></polygon><polygon points="27.749844457530134,131.9667149236678 30.064099978270445,137.18313832971802 21.328915733407243,140.9131189242789" fill="rgb(74,111,133)"></polygon><polygon points="27.749844457530134,131.9667149236678 43.06514092763289,133.38827935374442 30.064099978270445,137.18313832971802" fill="rgb(93,143,168)"></polygon><polygon points="43.06514092763289,133.38827935374442 42.679055351590634,142.43888651087624 30.064099978270445,137.18313832971802" fill="rgb(82,125,148)"></polygon><polygon points="43.06514092763289,133.38827935374442 51.86361677005924,133.41541554553618 48.01886550691876,139.29807803895764" fill="rgb(132,206,237)"></polygon><polygon points="43.06514092763289,133.38827935374442 42.679055351590634,142.43888651087624 48.01886550691876,139.29807803895764" fill="rgb(55,80,99)"></polygon><polygon points="51.86361677005924,133.41541554553618 56.575586073466916,130.0988244849242 62.550613789002085,138.7740645727428" fill="rgb(99,152,178)"></polygon><polygon points="51.86361677005924,133.41541554553618 48.01886550691876,139.29807803895764 62.550613789002085,138.7740645727428" fill="rgb(63,93,114)"></polygon><polygon points="56.575586073466916,130.0988244849242 68.6508421174612,129.25454027908154 62.550613789002085,138.7740645727428" fill="rgb(71,107,129)"></polygon><polygon points="68.6508421174612,129.25454027908154 70.8924068112182,142.85170279599762 62.550613789002085,138.7740645727428" fill="rgb(79,120,143)"></polygon><polygon points="68.6508421174612,129.25454027908154 79.16774244771804,126.83790632409118 81.52486494486648,142.30190101799505" fill="rgb(74,111,133)"></polygon><polygon points="68.6508421174612,129.25454027908154 70.8924068112182,142.85170279599762 81.52486494486648,142.30190101799505" fill="rgb(99,152,178)"></polygon><polygon points="79.16774244771804,126.83790632409118 92.11953043002133,131.04262891892233 90.30687885534194,142.20051853343043" fill="rgb(74,111,133)"></polygon><polygon points="79.16774244771804,126.83790632409118 81.52486494486648,142.30190101799505 90.30687885534194,142.20051853343043" fill="rgb(115,179,207)"></polygon><polygon points="92.11953043002133,131.04262891892233 101.40572635883535,130.37383072737688 90.30687885534194,142.20051853343043" fill="rgb(46,66,84)"></polygon><polygon points="101.40572635883535,130.37383072737688 100.34579331807859,138.8425747728754 90.30687885534194,142.20051853343043" fill="rgb(49,71,89)"></polygon><polygon points="101.40572635883535,130.37383072737688 111.4280761311883,130.13611906059478 100.34579331807859,138.8425747728754" fill="rgb(123,192,222)"></polygon><polygon points="111.4280761311883,130.13611906059478 111.85818916743943,141.42402229574859 100.34579331807859,138.8425747728754" fill="rgb(121,188,217)"></polygon><polygon points="111.4280761311883,130.13611906059478 118.84312899096184,133.34929741214648 111.85818916743943,141.42402229574859" fill="rgb(93,143,168)"></polygon><polygon points="118.84312899096184,133.34929741214648 116.90798594320111,140.06177286865605 111.85818916743943,141.42402229574859" fill="rgb(99,152,178)"></polygon><polygon points="118.84312899096184,133.34929741214648 130.94622326211177,131.8273487758945 116.90798594320111,140.06177286865605" fill="rgb(44,62,80)"></polygon><polygon points="130.94622326211177,131.8273487758945 131.99503288327838,139.57326941742693 116.90798594320111,140.06177286865605" fill="rgb(68,102,124)"></polygon><polygon points="130.94622326211177,131.8273487758945 141.37600232060908,127.05241666979835 139.67297381558853,138.58014363268597" fill="rgb(68,102,124)"></polygon><polygon points="130.94622326211177,131.8273487758945 131.99503288327838,139.57326941742693 139.67297381558853,138.58014363268597" fill="rgb(90,138,163)"></polygon><polygon points="141.37600232060908,127.05241666979835 150,132.23017751195178 150,141.52773259957777" fill="rgb(74,111,133)"></polygon><polygon points="141.37600232060908,127.05241666979835 139.67297381558853,138.58014363268597 150,141.52773259957777" fill="rgb(112,174,202)"></polygon><polygon points="0,139.12365452517088 9.521893158657326,141.75389588700597 0,150" fill="rgb(77,116,138)"></polygon><polygon points="9.521893158657326,141.75389588700597 11.939242165897138,150 0,150" fill="rgb(121,188,217)"></polygon><polygon points="9.521893158657326,141.75389588700597 21.328915733407243,140.9131189242789 16.614614567744812,150" fill="rgb(93,143,168)"></polygon><polygon points="9.521893158657326,141.75389588700597 11.939242165897138,150 16.614614567744812,150" fill="rgb(118,183,212)"></polygon><polygon points="21.328915733407243,140.9131189242789 30.064099978270445,137.18313832971802 30.09333096269871,150" fill="rgb(63,93,114)"></polygon><polygon points="21.328915733407243,140.9131189242789 16.614614567744812,150 30.09333096269871,150" fill="rgb(52,75,94)"></polygon><polygon points="30.064099978270445,137.18313832971802 42.679055351590634,142.43888651087624 37.74319239457882,150" fill="rgb(71,107,129)"></polygon><polygon points="30.064099978270445,137.18313832971802 30.09333096269871,150 37.74319239457882,150" fill="rgb(107,165,192)"></polygon><polygon points="42.679055351590634,142.43888651087624 48.01886550691876,139.29807803895764 51.23541823990367,150" fill="rgb(99,152,178)"></polygon><polygon points="42.679055351590634,142.43888651087624 37.74319239457882,150 51.23541823990367,150" fill="rgb(82,125,148)"></polygon><polygon points="48.01886550691876,139.29807803895764 62.550613789002085,138.7740645727428 51.23541823990367,150" fill="rgb(71,107,129)"></polygon><polygon points="62.550613789002085,138.7740645727428 61.76409933244514,150 51.23541823990367,150" fill="rgb(123,192,222)"></polygon><polygon points="62.550613789002085,138.7740645727428 70.8924068112182,142.85170279599762 61.76409933244514,150" fill="rgb(63,93,114)"></polygon><polygon points="70.8924068112182,142.85170279599762 67.23127840329157,150 61.76409933244514,150" fill="rgb(74,111,133)"></polygon><polygon points="70.8924068112182,142.85170279599762 81.52486494486648,142.30190101799505 67.23127840329157,150" fill="rgb(88,134,158)"></polygon><polygon points="81.52486494486648,142.30190101799505 82.30323237639851,150 67.23127840329157,150" fill="rgb(44,62,80)"></polygon><polygon points="81.52486494486648,142.30190101799505 90.30687885534194,142.20051853343043 87.59793496772384,150" fill="rgb(101,156,183)"></polygon><polygon points="81.52486494486648,142.30190101799505 82.30323237639851,150 87.59793496772384,150" fill="rgb(107,165,192)"></polygon><polygon points="90.30687885534194,142.20051853343043 100.34579331807859,138.8425747728754 87.59793496772384,150" fill="rgb(118,183,212)"></polygon><polygon points="100.34579331807859,138.8425747728754 97.40500082878704,150 87.59793496772384,150" fill="rgb(99,152,178)"></polygon><polygon points="100.34579331807859,138.8425747728754 111.85818916743943,141.42402229574859 111.34632380400465,150" fill="rgb(57,84,104)"></polygon><polygon points="100.34579331807859,138.8425747728754 97.40500082878704,150 111.34632380400465,150" fill="rgb(79,120,143)"></polygon><polygon points="111.85818916743943,141.42402229574859 116.90798594320111,140.06177286865605 111.34632380400465,150" fill="rgb(74,111,133)"></polygon><polygon points="116.90798594320111,140.06177286865605 120.26532975621713,150 111.34632380400465,150" fill="rgb(77,116,138)"></polygon><polygon points="116.90798594320111,140.06177286865605 131.99503288327838,139.57326941742693 120.26532975621713,150" fill="rgb(63,93,114)"></polygon><polygon points="131.99503288327838,139.57326941742693 129.2228839562794,150 120.26532975621713,150" fill="rgb(101,156,183)"></polygon><polygon points="131.99503288327838,139.57326941742693 139.67297381558853,138.58014363268597 129.2228839562794,150" fill="rgb(44,62,80)"></polygon><polygon points="139.67297381558853,138.58014363268597 141.9449146804947,150 129.2228839562794,150" fill="rgb(132,206,237)"></polygon><polygon points="139.67297381558853,138.58014363268597 150,141.52773259957777 150,150" fill="rgb(55,80,99)"></polygon><polygon points="139.67297381558853,138.58014363268597 141.9449146804947,150 150,150" fill="rgb(110,170,197)"></polygon></svg>